<?xml version="1.0" encoding="utf-8"?>
<!-- Generator: Adobe Illustrator 15.0.2, SVG Export Plug-In . SVG Version: 6.00 Build 0)  -->
<!DOCTYPE svg PUBLIC "-//W3C//DTD SVG 1.1//EN" "http://www.w3.org/Graphics/SVG/1.1/DTD/svg11.dtd">
<svg version="1.1" xmlns="http://www.w3.org/2000/svg" xmlns:xlink="http://www.w3.org/1999/xlink" x="0px" y="0px"
	 width="605.995px" height="606px" viewBox="3 96 605.995 606" enable-background="new 3 96 605.995 606" xml:space="preserve">
<g id="Layer_2">
	<path fill="#FFFFFF" stroke="#000000" stroke-miterlimit="10" d="M76.627,241.329c-8.343,24.271-21.985,45.011-33.86,67.351
		c-5.274,9.922-11.662,18.108-13.293,29.312c-1.629,11.19-1.942,23.273-2.606,34.562c-0.886,15.075-0.233,29.068-0.231,44.04
		c0.002,13.911-0.319,23.518,5.49,36.158c6.962,15.15,12.747,34.58,16.165,50.869c8.133,38.76,37.043,70.528,62.901,100.258
		c14.314,16.459,27.987,30.031,47.889,38.505c17.261,7.348,36.331,12.427,53.048,20.392c10.038,4.782,19.215,6.526,30.376,8.207
		c36.271,5.462,71.686,16.575,108.973,13.037c7.837-0.743,14.88-4.708,21.973-7.118c17.142-5.829,34.526-7.662,53.165-9.934
		c-2.061,0.251,3.721-15.25,6.427-17.199c7.718-5.561,24.014-7.091,33.263-8.271c8.182-1.045,18.562-0.886,25.527-6.172
		c16.48-12.506,21.357-37.465,33.489-53.771c15.358-20.645,25.778-44.286,36.399-67.532c3.684-8.061,6.37-13.223,8.5-21.649
		c2.182-8.637,7.674-15.986,9.113-24.877c1.492-9.222,0.461-19.457,1.089-28.836c1.447-21.636,3.892-43.629-0.505-65.099
		c-2.995-14.625-5.611-28.813-7.954-43.384c-4.567-28.415-7.67-61.853-19.756-88.376c-19.191-42.123-62.278-59.435-98.021-83.386
		c-16.83-11.278-34.12-29.673-54.63-32.583c-26.114-3.705-54.725-6.448-81.141-7.251c-20.872-0.635-41.741-1.863-62.562-2.071
		c-16.335-0.163-36.294-2.121-49.545,6.186c-12.295,7.708-16.62,22.197-29.512,27.206c-15.276,5.935-29.736,8.853-43.82,18.134
		C106.772,185.307,86.778,211.802,76.627,241.329z"/>
</g>
<g id="Layer_1">
	<g>
		<g>
			<path d="M245.4,96c40.4,0,80.8,0,121.195,0c119.795,41.811,203.317,119.888,242.4,242.4c0,40.4,0,80.8,0,121.2
				c-39.28,122.315-120.08,203.115-242.4,242.4c-40.395,0-80.795,0-121.195,0C123.085,662.715,42.286,581.915,3,459.6
				c0-40.398,0-80.8,0-121.2C42.083,215.888,125.61,137.811,245.4,96z M73.7,267.7C-15.351,431.924,107.319,634.111,245.4,661.6
				c411.284,81.875,427.588-576.686,20.2-525.2c-7.052,0.897-9.676,10.021-10.1,10.1C173.462,161.542,107.659,205.078,73.7,267.7z"
				/>
			<path d="M528.195,419.2c-37.702,83.492-113.099,129.298-181.79,181.8C261.137,548.231,202.86,468.477,134.3,399
				c5.041-55.56-11.135-132.335,10.1-171.7C334.258,169.58,415.601,332.393,528.195,419.2z M174.7,277.8
				c3.477,35.666,26.512,26.108,50.5,20.2C232.282,263.035,189.791,261.772,174.7,277.8z"/>
		</g>
	</g>
</g>
</svg>
