<?xml version="1.0" encoding="utf-8"?>
<!-- Generator: Adobe Illustrator 15.0.2, SVG Export Plug-In . SVG Version: 6.00 Build 0)  -->
<!DOCTYPE svg PUBLIC "-//W3C//DTD SVG 1.1//EN" "http://www.w3.org/Graphics/SVG/1.1/DTD/svg11.dtd">
<svg version="1.1" xmlns="http://www.w3.org/2000/svg" xmlns:xlink="http://www.w3.org/1999/xlink" x="0px" y="0px" width="607px"
	 height="607px" viewBox="0 94.993 607 607" enable-background="new 0 94.993 607 607" xml:space="preserve">
<g id="Layer_2">
	<path fill="#FFFFFF" stroke="#000000" stroke-miterlimit="10" d="M76.627,235.665c-8.343,24.335-21.985,45.132-33.86,67.532
		c-5.274,9.949-11.662,18.157-13.293,29.391c-1.629,11.22-1.942,23.335-2.606,34.656c-0.886,15.115-0.233,29.146-0.231,44.159
		c0.002,13.947-0.319,23.58,5.49,36.255c6.962,15.19,12.747,34.673,16.165,51.006c8.133,38.863,37.043,70.718,62.901,100.527
		c14.314,16.503,27.987,30.112,47.889,38.608c17.261,7.367,36.331,12.46,53.048,20.446c10.038,4.795,19.215,6.544,30.376,8.229
		c36.271,5.477,71.686,16.62,108.973,13.072c7.837-0.745,14.88-4.721,21.973-7.138c17.142-5.844,34.526-7.682,53.165-9.959
		c-2.061,0.251,3.721-15.292,6.427-17.246c7.718-5.575,24.014-7.11,33.263-8.293c8.182-1.048,18.562-0.889,25.527-6.188
		c16.48-12.54,21.357-37.566,33.489-53.917c15.358-20.7,25.778-44.404,36.399-67.714c3.684-8.081,6.37-13.258,8.5-21.707
		c2.182-8.66,7.674-16.029,9.113-24.944c1.492-9.246,0.461-19.509,1.089-28.913c1.447-21.694,3.892-43.746-0.505-65.273
		c-2.995-14.664-5.611-28.89-7.954-43.5c-4.567-28.491-7.67-62.019-19.756-88.614c-19.191-42.236-62.278-59.594-98.021-83.61
		c-16.83-11.308-34.12-29.752-54.63-32.67c-26.114-3.714-54.725-6.466-81.141-7.271c-20.872-0.636-41.741-1.868-62.562-2.077
		c-16.335-0.163-36.294-2.126-49.545,6.203c-12.295,7.729-16.62,22.257-29.512,27.279c-15.276,5.951-29.736,8.876-43.82,18.183
		C106.772,179.493,86.778,206.059,76.627,235.665z"/>
</g>
<g id="Layer_1">
	<g>
		<g>
			<path d="M242.8,94.993c40.467,0,80.935,0,121.4,0c119.987,41.879,203.651,120.076,242.8,242.8c0,40.467,0,80.934,0,121.4
				c-39.351,122.517-120.283,203.449-242.8,242.8c-40.467,0-80.934,0-121.4,0C120.284,662.643,39.35,581.709,0,459.192
				c0-40.468,0-80.934,0-121.4C39.148,215.069,122.813,136.872,242.8,94.993z M364.2,661.526
				c79.199-14.851,225.881-106.217,202.333-303.5C532.711,74.631-6.782,43.076,40.467,438.959
				c4.851,40.665,31.6,131.112,80.933,141.634c-1.225-0.257,37.498-39.795,70.817-40.467c62.542-1.265,32.983,58.704,91.05,30.35
				c6.244-56.282-46.898-66.913-70.816-101.166c-30.039-43.016-34.742-85.833-30.35-161.867c13.49,0,26.976,0,40.467,0
				c7.488-39.726-21.345-115.769,30.35-111.284c0,37.098,0,74.186,0,111.284c33.724,0,67.443,0,101.167,0
				c6.407-34.065-13.036-93.965,10.117-111.284c36.678,7.163,13.944,73.731,20.232,111.284c15.136,1.719,37.335-3.616,40.468,10.117
				c16.829,121.37-43.808,165.274-91.052,222.566c-18.089,32.494-18.196,82.969-70.815,80.934
				c-46.582-2.767-70.55-70.264-111.283-20.232C200.659,656.142,270.235,679.142,364.2,661.526z"/>
		</g>
	</g>
</g>
</svg>
