<?xml version="1.0" encoding="utf-8"?>
<!-- Generator: Adobe Illustrator 15.0.2, SVG Export Plug-In . SVG Version: 6.00 Build 0)  -->
<!DOCTYPE svg PUBLIC "-//W3C//DTD SVG 1.1//EN" "http://www.w3.org/Graphics/SVG/1.1/DTD/svg11.dtd">
<svg version="1.1" xmlns="http://www.w3.org/2000/svg" xmlns:xlink="http://www.w3.org/1999/xlink" x="0px" y="0px" width="612px"
	 height="608.992px" viewBox="0 93 612 608.992" enable-background="new 0 93 612 608.992" xml:space="preserve">
<g id="Layer_2">
	<path fill="#FFFFFF" stroke="#000000" stroke-miterlimit="10" d="M76.627,239.244c-8.343,23.866-21.985,44.261-33.86,66.229
		c-5.274,9.757-11.662,17.806-13.293,28.824c-1.629,11.004-1.942,22.885-2.606,33.987c-0.886,14.824-0.233,28.584-0.231,43.307
		c0.002,13.679-0.319,23.125,5.49,35.556c6.962,14.897,12.747,34.004,16.165,50.021c8.133,38.113,37.043,69.353,62.901,98.587
		c14.314,16.185,27.987,29.531,47.889,37.863c17.261,7.226,36.331,12.22,53.048,20.052c10.038,4.703,19.215,6.418,30.376,8.07
		c36.271,5.371,71.686,16.299,108.973,12.82c7.837-0.731,14.88-4.63,21.973-7c17.142-5.731,34.526-7.534,53.165-9.768
		c-2.061,0.246,3.721-14.996,6.427-16.913c7.718-5.468,24.014-6.973,33.263-8.133c8.182-1.027,18.562-0.871,25.527-6.068
		c16.48-12.298,21.357-36.841,33.489-52.876c15.358-20.301,25.778-43.548,36.399-66.407c3.684-7.926,6.37-13.002,8.5-21.288
		c2.182-8.493,7.674-15.721,9.113-24.463c1.492-9.068,0.461-19.133,1.089-28.355c1.447-21.275,3.892-42.902-0.505-64.014
		c-2.995-14.381-5.611-28.333-7.954-42.661c-4.567-27.941-7.67-60.822-19.756-86.904c-19.191-41.421-62.278-58.444-98.021-81.997
		c-16.83-11.09-34.12-29.178-54.63-32.04c-26.114-3.643-54.725-6.341-81.141-7.131c-20.872-0.624-41.741-1.832-62.562-2.037
		c-16.335-0.16-36.294-2.085-49.545,6.083c-12.295,7.58-16.62,21.828-29.512,26.752c-15.276,5.836-29.736,8.705-43.82,17.832
		C106.772,184.155,86.778,210.208,76.627,239.244z"/>
</g>
<g id="Layer_1">
	<g>
		<g>
			<path d="M243.597,93c40.599,0,81.199,0,121.797,0c120.382,42.017,204.321,120.47,243.598,243.597c0,40.599,0,81.199,0,121.797
				c-39.479,122.92-120.678,204.117-243.598,243.598c-40.6,0-81.199,0-121.797,0C120.678,662.513,39.479,581.314,0,458.396
				c0-40.601,0-81.2,0-121.798C39.276,213.47,123.216,135.017,243.597,93z M71.049,265.548
				c-89.496,165.034,33.78,368.222,172.548,395.845c413.31,82.28,429.7-579.534,20.3-527.792c-7.083,0.892-9.719,10.07-10.15,10.15
				C171.304,158.865,105.171,202.617,71.049,265.548z"/>
			<path d="M365.396,285.848c81.754-134.744,259.5,79.474,101.498,121.798c8.6,29.745,32.681-6.065,50.749,0
				c-6.521,34.683-15.858,59.304-50.749,40.601c0,33.829,0,67.669,0,101.498c-98.113,0-196.232,0-294.347,0
				c0-23.68,0-47.369,0-71.049c-43.959-6.74-62.862,11.566-81.199,30.448c-23.387-27.355-3.603-97.891-10.149-142.098
				c30.519,6.7,35.425,39.004,81.199,30.449c11.022-2.508,6.884-20.181,20.3-20.3c-50.715-61.157,5.209-229.878,131.949-172.548
				C328.771,234.503,364.206,243.048,365.396,285.848z M213.147,316.297c16.33,38.508,85.168,38.508,101.5,0
				C331.03,225.107,198.82,227.506,213.147,316.297z M405.995,346.747c11.389,2.151,15.8,11.26,20.3,20.3
				c41.402,4.183,64.036-10.398,60.899-50.75C476.311,267.173,386.959,280.178,405.995,346.747z M334.946,377.196
				c15.185-1.725,37.457,3.628,40.599-10.149C362.055,353.864,337.775,353.666,334.946,377.196z"/>
		</g>
	</g>
</g>
</svg>
