<?xml version="1.0" encoding="utf-8"?>
<!-- Generator: Adobe Illustrator 15.0.2, SVG Export Plug-In . SVG Version: 6.00 Build 0)  -->
<!DOCTYPE svg PUBLIC "-//W3C//DTD SVG 1.1//EN" "http://www.w3.org/Graphics/SVG/1.1/DTD/svg11.dtd">
<svg version="1.1" id="Layer_1" xmlns="http://www.w3.org/2000/svg" xmlns:xlink="http://www.w3.org/1999/xlink" x="0px" y="0px"
	 width="612px" height="591.756px" viewBox="0 0 612 591.756" enable-background="new 0 0 612 591.756" xml:space="preserve">
<path fill="#FFFFFF" d="M191.947,104.329C95,131.092,111.241,248.575,126.468,324.107c6.968,34.562,11.022,63.117,35.31,89.297
	c5.512,5.941,10.458,12.528,17.275,16.902c16.071,10.312,42.217,12.243,60.791,14.296c23.881,2.64,47.606,6.226,71.635,1.595
	c20.969-4.04,49.907-15.005,65.713-29.516c24.368-22.375,31.712-54.65,35.945-86.043c4.082-30.27,9.192-60.785,4.155-91.342
	c-5.188-31.475-19.068-60.363-29.584-90.182c-5.937-16.833-15.279-28.694-30.186-38.647c-24.306-16.23-53.968-19.551-82.567-16.19
	c-24.398,2.867-49.493,0.774-74.147,3.029c-8.962,0.819-17.642,2.975-21.861,12.023"/>
<g>
	<g>
		<path d="M294.403,0.434C435.222-7.002,577.058,81.79,604.118,221.658C697.826,706.04,6.833,696.266,2.387,301.298
			C0.557,138.725,111.802,10.075,294.403,0.434z M303.25,159.715c25.132-7.973,130.364,111.097,123.886,0
			c-3.963-67.948-191.12-108.964-221.225-8.849c-20.125,66.927,32.209,110.057-8.849,150.433c108.829,1.542-2.596,133.696,0,141.585
			c19.765,60.037,202.593,46.581,212.375-8.85c4.069-23.054-75.387-51.083-53.093-115.035c9.454-27.123,89.64,2.345,53.093-61.943
			C378.226,274.756,246.124,177.84,303.25,159.715z"/>
	</g>
</g>
</svg>
