<?xml version="1.0" encoding="utf-8"?>
<!-- Generator: Adobe Illustrator 15.0.2, SVG Export Plug-In . SVG Version: 6.00 Build 0)  -->
<!DOCTYPE svg PUBLIC "-//W3C//DTD SVG 1.1//EN" "http://www.w3.org/Graphics/SVG/1.1/DTD/svg11.dtd">
<svg version="1.1" xmlns="http://www.w3.org/2000/svg" xmlns:xlink="http://www.w3.org/1999/xlink" x="0px" y="0px" width="601px"
	 height="601px" viewBox="4 96.993 601 601" enable-background="new 4 96.993 601 601" xml:space="preserve">
<g id="Layer_2">
	<path fill="#FFFFFF" stroke="#000000" stroke-miterlimit="10" d="M83.319,241.176c-8.12,23.868-21.397,44.264-32.954,66.232
		c-5.133,9.757-11.351,17.807-12.938,28.825c-1.586,11.004-1.89,22.886-2.536,33.988c-0.863,14.824-0.228,28.586-0.226,43.309
		c0.002,13.68-0.311,23.127,5.343,35.558c6.776,14.898,12.405,34.005,15.732,50.024c7.915,38.114,36.051,69.354,61.217,98.591
		c13.932,16.186,27.238,29.533,46.607,37.865c16.798,7.226,35.358,12.22,51.627,20.053c9.77,4.703,18.701,6.418,29.563,8.07
		c35.299,5.372,69.766,16.301,106.055,12.821c7.627-0.731,14.482-4.63,21.385-7.001c16.683-5.731,33.603-7.534,51.742-9.768
		c-2.006,0.246,3.62-14.997,6.254-16.914c7.512-5.468,23.371-6.973,32.372-8.133c7.964-1.027,18.065-0.871,24.845-6.069
		c16.039-12.298,20.786-36.842,32.593-52.878c14.947-20.302,25.089-43.55,35.426-66.41c3.584-7.927,6.199-13.003,8.271-21.289
		c2.124-8.493,7.469-15.722,8.869-24.465c1.453-9.068,0.449-19.133,1.06-28.356c1.409-21.276,3.788-42.904-0.49-64.017
		c-2.916-14.382-5.461-28.334-7.742-42.664c-4.444-27.942-7.464-60.824-19.227-86.908c-18.678-41.423-60.61-58.447-95.396-82.001
		c-16.379-11.09-33.207-29.18-53.168-32.041c-25.415-3.643-53.259-6.341-78.968-7.131c-20.313-0.624-40.624-1.832-60.888-2.036
		c-15.898-0.16-35.323-2.086-48.219,6.083c-11.966,7.58-16.175,21.829-28.722,26.754c-14.867,5.836-28.94,8.706-42.647,17.833
		C112.657,186.085,93.198,212.14,83.319,241.176z"/>
</g>
<g id="Layer_1">
	<g>
		<g>
			<path d="M244.4,96.993c40.067,0,80.133,0,120.2,0c118.803,41.465,201.641,118.889,240.4,240.4c0,40.067,0,80.134,0,120.2
				c-38.961,121.307-119.095,201.438-240.4,240.4c-40.065,0-80.133,0-120.2,0C123.095,659.031,42.961,578.898,4,457.593
				c0-40.065,0-80.133,0-120.2C42.761,215.882,125.599,138.458,244.4,96.993z M74.117,267.276
				c-88.321,162.869,33.337,363.388,170.283,390.65c407.891,81.2,424.06-571.928,20.034-520.866
				c-6.989,0.88-9.591,9.938-10.017,10.017C173.056,161.993,107.791,205.171,74.117,267.276z"/>
			<path d="M304.5,317.359c25.047-119.613,258.868-104.647,210.35,70.117c-72.376,74.538-127.556,166.263-220.366,220.367
				C268.023,503.949,76.939,469.585,94.15,327.376C105.34,234.908,261.156,189.373,304.5,317.359z"/>
		</g>
	</g>
	<path fill="none" stroke="#000000" stroke-miterlimit="10" d="M84.525,241.042c-8.015,23.439-21.121,43.47-32.528,65.044
		c-5.066,9.582-11.204,17.488-12.771,28.308c-1.565,10.807-1.866,22.476-2.503,33.379c-0.852,14.559-0.225,28.073-0.223,42.532
		c0.002,13.435-0.307,22.712,5.274,34.92c6.688,14.631,12.245,33.396,15.529,49.127c7.812,37.431,35.585,68.111,60.427,96.823
		c13.751,15.895,26.886,29.003,46.005,37.186c16.582,7.097,34.902,12.001,50.961,19.693c9.643,4.619,18.459,6.303,29.181,7.926
		c34.844,5.275,68.865,16.008,104.686,12.591c7.528-0.718,14.295-4.547,21.108-6.875c16.467-5.629,33.168-7.399,51.073-9.593
		c-1.979,0.242,3.574-14.728,6.174-16.61c7.414-5.37,23.069-6.848,31.954-7.987c7.86-1.009,17.832-0.855,24.523-5.96
		c15.832-12.077,20.518-36.182,32.172-51.93c14.754-19.938,24.765-42.769,34.968-65.22c3.538-7.784,6.119-12.77,8.165-20.907
		c2.097-8.341,7.372-15.439,8.755-24.025c1.434-8.906,0.443-18.79,1.046-27.848c1.391-20.896,3.739-42.135-0.484-62.869
		c-2.878-14.124-5.391-27.826-7.642-41.898c-4.388-27.441-7.368-59.733-18.979-85.349c-18.437-40.68-59.828-57.399-94.164-80.53
		c-16.168-10.892-32.778-28.656-52.481-31.466c-25.087-3.578-52.571-6.228-77.948-7.003c-20.051-0.613-40.099-1.799-60.102-2
		c-15.693-0.157-34.867-2.048-47.596,5.974c-11.812,7.444-15.966,21.437-28.351,26.274c-14.675,5.731-28.566,8.549-42.096,17.513
		C113.484,186.939,94.276,212.527,84.525,241.042z"/>
</g>
</svg>
