<?xml version="1.0" encoding="utf-8"?>
<!-- Generator: Adobe Illustrator 15.0.2, SVG Export Plug-In  -->
<!DOCTYPE svg PUBLIC "-//W3C//DTD SVG 1.1//EN" "http://www.w3.org/Graphics/SVG/1.1/DTD/svg11.dtd" [
	<!ENTITY ns_flows "http://ns.adobe.com/Flows/1.0/">
]>
<svg version="1.1"
	 xmlns="http://www.w3.org/2000/svg" xmlns:xlink="http://www.w3.org/1999/xlink" xmlns:a="http://ns.adobe.com/AdobeSVGViewerExtensions/3.0/"
	 x="0px" y="0px" width="612px" height="792px" viewBox="-17 -103.595 612 792"
	 overflow="visible" enable-background="new -17 -103.595 612 792" xml:space="preserve">
<defs>
</defs>
<path fill="#FCFAFA" d="M314,102.405c-41.652-6.885-86.368-13.646-128.801-11.793c-23.614,1.031-44.95,6.343-60.4,25.742
	c-11.442,14.367-15.781,30.711-16.596,48.834c-0.931,20.735-5.985,39.375-11.229,59.507c-4.01,15.396-12.918,30.542-14.041,46.155
	c-0.829,11.534,0.667,23.105,1.064,34.557c0.564,16.256,1.116,32.017,1.911,48.277c1.611,32.966,9.113,68.004,16.839,100.119
	c2.854,11.864,8.752,24.036,8.839,36.43c19.272,3.462,45.175-1.671,65.103-2.785c38.743-2.168,80.314-3.464,116.279-19.818
	c15.395-7.001,30.274-17.144,45.185-25.527c26.454-14.874,60.417-23.039,84.508-41.643c31.043-23.971,36.421-58.302,43.64-94.282
	c3.636-18.122,14.286-34.382,18.299-52.552c4.425-20.033,6.3-45.837,5.609-66.235c-0.887-26.163,0.459-55.14-25.143-69.27
	c-27.419-15.133-64.593-19.773-94.939-24.427c-11.137-1.708-21.982-3.028-33.271-3.285c-11.871-0.27-29.699-3.194-39.854,3.997"/>
<g>
	<g>
		<path fill-rule="evenodd" clip-rule="evenodd" d="M221.729,31.676c216.6-43.459,375.216,152.292,316.757,348.433
			c-21.484,72.084-110.174,158.342-190.054,174.216C141.623,595.421-29.954,427.571,15.838,221.729
			C32.955,144.785,106.753,54.745,221.729,31.676z M459.297,166.297c0.238-35.83-36.663-2.501-47.513,0
			c-14.703-22.252-58.853-15.058-95.027-15.838c-20.851,21.384-37.297,47.171-47.514,79.189
			c-60.506-8.124-89.601-47.66-134.622-71.27c-9.496,33.12-8.242,61.463,7.919,87.108c-9.319,1.24-22.479-1.361-23.757,7.919
			c32.599,36.032,30.978,106.284,87.108,118.784c-26.965,7.35-46.446,22.185-87.108,15.838
			C132.08,446.001,226.517,422.834,293,427.622c68.526-42.339,135.303-86.428,134.621-197.974
			C469.984,199.936,440.29,175.833,459.297,166.297z"/>
	</g>
</g>
</svg>
