<?xml version="1.0" encoding="utf-8"?>
<!-- Generator: Adobe Illustrator 15.0.2, SVG Export Plug-In . SVG Version: 6.00 Build 0)  -->
<!DOCTYPE svg PUBLIC "-//W3C//DTD SVG 1.1//EN" "http://www.w3.org/Graphics/SVG/1.1/DTD/svg11.dtd">
<svg version="1.1" xmlns="http://www.w3.org/2000/svg" xmlns:xlink="http://www.w3.org/1999/xlink" x="0px" y="0px"
	 width="587.992px" height="587.992px" viewBox="14 100 587.992 587.992" enable-background="new 14 100 587.992 587.992"
	 xml:space="preserve">
<g id="Layer_2">
	<path fill="#FFFFFF" stroke="#000000" stroke-miterlimit="10" d="M86.525,243.042c-8.015,23.439-21.121,43.47-32.528,65.044
		c-5.066,9.582-11.204,17.488-12.771,28.308c-1.565,10.807-1.866,22.476-2.503,33.379c-0.852,14.559-0.225,28.073-0.223,42.532
		c0.002,13.435-0.307,22.712,5.274,34.92c6.688,14.631,12.245,33.396,15.529,49.127c7.812,37.431,35.585,68.111,60.427,96.823
		c13.751,15.895,26.886,29.003,46.005,37.186c16.582,7.097,34.902,12.001,50.961,19.693c9.643,4.619,18.459,6.303,29.181,7.926
		c34.844,5.275,68.865,16.008,104.686,12.591c7.528-0.718,14.295-4.547,21.108-6.875c16.467-5.629,33.168-7.399,51.073-9.593
		c-1.979,0.242,3.574-14.728,6.174-16.61c7.414-5.37,23.069-6.848,31.954-7.987c7.86-1.009,17.832-0.855,24.523-5.96
		c15.832-12.077,20.518-36.182,32.172-51.93c14.754-19.938,24.765-42.769,34.968-65.22c3.538-7.784,6.119-12.77,8.165-20.907
		c2.097-8.341,7.372-15.439,8.755-24.025c1.434-8.906,0.443-18.79,1.046-27.848c1.391-20.896,3.739-42.135-0.484-62.869
		c-2.878-14.124-5.391-27.826-7.642-41.898c-4.388-27.441-7.368-59.733-18.979-85.349c-18.437-40.68-59.828-57.399-94.164-80.53
		c-16.168-10.892-32.778-28.656-52.481-31.466c-25.087-3.578-52.571-6.228-77.948-7.003c-20.051-0.613-40.099-1.799-60.102-2
		c-15.693-0.157-34.867-2.048-47.596,5.974c-11.812,7.444-15.966,21.437-28.351,26.274c-14.675,5.731-28.566,8.549-42.096,17.513
		C115.484,188.939,96.276,214.527,86.525,243.042z"/>
</g>
<g id="Layer_1">
	<g>
		<g>
			<path d="M249.197,100c39.2,0,78.398,0,117.599,0c116.229,40.568,197.274,116.316,235.196,235.197c0,39.2,0,78.398,0,117.599
				c-38.118,118.68-116.518,197.078-235.196,235.196c-39.2,0-78.399,0-117.599,0C130.517,649.874,52.118,571.476,14,452.796
				c0-39.2,0-78.399,0-117.599C50.271,214.67,133.776,141.372,249.197,100z M82.599,266.598
				C-3.81,425.941,115.214,622.121,249.197,648.793c399.058,79.442,414.882-559.55,19.6-509.593c-6.838,0.861-9.384,9.723-9.8,9.8
				C179.397,163.594,115.544,205.837,82.599,266.598z"/>
			<path d="M366.796,393.996c1.172,28.223,41.793,17.006,39.199,49c54.957,9.226,66.45-25.018,107.799-29.4
				c-6.087,29.851-52.713,19.15-58.8,49c24.38,17.266,54.335-10.001,49,48.999c-11.395-1.599-17.438,2.163-19.602,9.8
				c-28.591,2.461-33.812-18.45-48.999-29.398c-16.136,1.33-16.136,67.269,0,68.599c-51.641,31.831-0.243-122.431-88.198-107.798
				c-34.97,54.896,18.677,105.214,58.8,117.598c-16.017,44.616-38.311-19.608-68.601-19.6c12.987,29.17,10.05,49.728-9.8,68.6
				c-7.881-5.188-15.91-10.222-29.398-9.8c-19.184-18.308-3.024-35.889,0-58.8c-16.36-22.011-43.621,27.591-68.599,29.399
				c7.881-37.851,47.899-43.563,68.599-68.6c0.22-23.083-16.877-28.854-9.8-58.799c-78.662-9.819-79.069,76.331-78.399,117.599
				c-35.745-6.689,2.091-39.019-9.8-78.398c-43.497-4.297-24.241,54.157-78.399,39.199c0-16.336,0-32.663,0-48.999
				c12.876-9.991,36.123-9.608,48.999-19.601c-8.445-27.485-51.019-20.844-68.599-39.199c1.522-47.479,49.076-48.922,68.599-78.398
				c-14.379-21.552-75.643,3.78-58.799-49c21.193-20.031,60.953-3.369,68.599,19.6c34.419-5.369,15.729-56.837,9.8-78.399
				c37.807-1.876,10.446,61.421,29.399,78.399c7.872,24.796,40.343,24.988,58.799,39.2c21.911-4.221,3.967-48.301,9.8-68.599
				c-14.413-31.323-60.866-30.605-68.599-68.599c27.586,8.345,40.209,31.658,78.399,29.399c-7.178-33.974-30.069-52.186-9.8-88.199
				c43.979-1.512,40.894,44.032,39.199,88.199c41.898,15.111,49.952-53.698,68.601-29.399
				c-19.748,42.319-77.002,47.133-58.8,127.398c35.846,6.45,37.597-21.208,68.6-19.6c0-29.399,0-58.799,0-88.199
				c38.648-5.981,11.527,53.804,19.6,78.399c41.453,2.259,22.198-56.196,78.399-39.2c7.904,43.841-17.438,54.426-49,58.799
				c0.35,32.319,27.868,37.467,58.8,39.2C508.722,398.562,392.295,333.427,366.796,393.996z M121.799,413.596
				c48.219,27.812,82.725,31.859,127.398,0C235.665,344.997,143.159,364.443,121.799,413.596z"/>
		</g>
	</g>
</g>
</svg>
