<?xml version="1.0" encoding="utf-8"?>
<!-- Generator: Adobe Illustrator 15.0.2, SVG Export Plug-In . SVG Version: 6.00 Build 0)  -->
<!DOCTYPE svg PUBLIC "-//W3C//DTD SVG 1.1//EN" "http://www.w3.org/Graphics/SVG/1.1/DTD/svg11.dtd">
<svg version="1.1" id="Layer_1" xmlns="http://www.w3.org/2000/svg" xmlns:xlink="http://www.w3.org/1999/xlink" x="0px" y="0px"
	 width="612px" height="606.234px" viewBox="0 0 612 606.234" enable-background="new 0 0 612 606.234" xml:space="preserve">
<path fill="#F9F9F9" d="M288,99.986c-26.922,2.011-56.502-1.597-82.804,4.334c-14.269,3.218-24.473,12.122-34.844,22.024
	c-21.563,20.588-39.844,50.794-55.324,76.351c-14.395,23.767-11.848,53.146-12.08,80.398c-0.175,20.558-2.116,41.829-0.598,62.305
	c1.191,16.075,1.107,36.465,4.58,52.185c4.521,20.464,22.606,42.221,34.428,59.3c9.642,13.93,26.896,19.905,43.127,24.135
	c29.242,7.619,59.509,11.028,89.358,13.948c18.244,1.784,36.001,6.574,54.5,8.368c20.056,1.945,48.022,4.69,66.317-2.234
	c17.824-6.747,28.525-28.985,36.705-44.378c9.469-17.815,24.211-35.609,28.193-55.819c4.691-23.8,9.276-48.129,16.242-71.666
	c10.596-35.798,15.231-73.666,12.316-111.301c-2.875-37.126-26.749-59.039-54.277-80.505c-10.679-8.328-22.947-14.527-33.757-22.621
	c-7-5.242-13.443-12.343-21.784-15.826c-23.083-9.638-52.981-6.921-77.666-6.998c-9.786-0.031-14.541,0.626-22.467,5.278
	c-5.028,2.95-8.698,8.739-15.167,8.722"/>
<g>
	<g>
		<path d="M241.742,7.899c244.401-49.038,423.379,171.839,357.416,393.157c-24.242,81.338-124.315,178.668-214.449,196.579
			C151.353,644.007-42.249,454.612,9.421,222.349C28.735,135.527,112.007,33.93,241.742,7.899z M348.967,401.056
			c140.875,5.83,192.89-182.987,116.161-259.126C350.398,28.08,106.122,140.2,116.646,329.573
			c8.835,158.959,236.48,225.841,339.546,80.418c-70.758-8.63-72.185,40.948-134.031,44.677
			c-125.97,7.594-183.289-92.463-160.838-196.579c31.459-145.892,275.069-167.383,294.869-26.806
			c7.473,53.055-6.108,91.592-53.612,107.225c-0.247-50.881,22.699-78.568,17.87-134.031c-45.574,18.452-93.041-12.659-134.031,0
			c-72.038,22.246-115.413,122.578-71.482,196.578c53.258,8.582,72.778-16.576,98.289-35.741
			C309.079,393.288,320.994,405.202,348.967,401.056z"/>
		<path d="M322.161,249.154c10.388-1.453,15.897,1.973,17.871,8.935c-5.399,39.28-19.304,70.051-53.613,80.419
			C282.797,293.187,307.613,276.305,322.161,249.154z"/>
	</g>
</g>
</svg>
