<?xml version="1.0" encoding="utf-8"?>
<!-- Generator: Adobe Illustrator 15.0.2, SVG Export Plug-In . SVG Version: 6.00 Build 0)  -->
<!DOCTYPE svg PUBLIC "-//W3C//DTD SVG 1.1//EN" "http://www.w3.org/Graphics/SVG/1.1/DTD/svg11.dtd">
<svg version="1.1" id="Layer_1" xmlns="http://www.w3.org/2000/svg" xmlns:xlink="http://www.w3.org/1999/xlink" x="0px" y="0px"
	 width="612px" height="606.234px" viewBox="0 0 612 606.234" enable-background="new 0 0 612 606.234" xml:space="preserve">
<path fill="#FFFFFF" d="M183,119.527c-19.6,3.886-44.87,4.952-59.6,20.532c-9.007,9.527-17.23,20.571-23.4,32.409
	c-15.395,29.537-25.33,55.974-33.059,88.712c-7.48,31.683-17.566,76.586-7.274,108.232c7.543,23.194,24.772,40.199,37.319,60.321
	c13.97,22.401,32.406,33.704,56.964,44.001c34.521,14.473,79.205,21.33,116.252,21.679c25.536,0.24,52.32-21.526,72.183-36.003
	c11.033-8.042,18.268-19.995,28.626-29.236c12.431-11.089,25.665-21.335,37.928-32.598c25.646-23.555,31.721-62.797,44.21-94.05
	c9.375-23.458,16.458-43.189,22.045-67.644c3.398-14.881,7.529-30.349,10.434-45.13c4.69-23.873-9.619-46.39-29.63-59.02
	c-17.451-11.015-36.92-12.621-56.975-15.176c-36.542-4.656-72.893-4.03-109.657-4.03c-17.899,0-36.117-0.775-54.001,0.174
	c-14.116,0.75-23.327,4.705-35.947,8.262c-12.831,3.617-27.488,5.07-41.417,4.564"/>
<g>
	<g>
		<path d="M240.506,5.982C397.017-25.42,541.389,52.201,590.761,176.619c80.975,204.059-74.673,478.648-359.235,422.102
			C98.725,572.33-46.59,404.525,15.985,194.582C38.434,119.258,121.32,29.896,240.506,5.982z M509.933,158.658
			c0.271-40.634-41.581-2.837-53.886,0c-16.676-25.236-66.743-17.078-107.771-17.961c-23.644,24.251-42.296,53.497-53.883,89.809
			c-68.621-9.215-101.617-54.052-152.676-80.829c-10.769,37.562-9.347,69.705,8.981,98.791c-10.568,1.406-25.493-1.544-26.942,8.981
			c36.969,40.864,35.131,120.537,98.789,134.714c-30.581,8.336-52.673,25.159-98.789,17.961
			c15.079,65.748,122.181,39.475,197.579,44.904c77.717-48.018,153.446-98.018,152.677-224.523
			C522.052,196.807,488.375,169.471,509.933,158.658z"/>
	</g>
</g>
</svg>
