<?xml version="1.0" encoding="utf-8"?>
<!-- Generator: Adobe Illustrator 15.0.2, SVG Export Plug-In . SVG Version: 6.00 Build 0)  -->
<!DOCTYPE svg PUBLIC "-//W3C//DTD SVG 1.1//EN" "http://www.w3.org/Graphics/SVG/1.1/DTD/svg11.dtd">
<svg version="1.1" id="Layer_1" xmlns="http://www.w3.org/2000/svg" xmlns:xlink="http://www.w3.org/1999/xlink" x="0px" y="0px"
	 width="611.534px" height="602.284px" viewBox="0 0 611.534 602.284" enable-background="new 0 0 611.534 602.284"
	 xml:space="preserve">
<path fill="#FCFCFC" stroke="#FFFFFF" stroke-width="20" d="M194,183c-62.226-2.334-86.009,64.164-77.845,117.174
	c3.282,21.312,24.941,43.778,38.357,59.36c9.286,10.784,20.315,20.091,23.839,33.981c2.086,8.226,1.044,16.932,1.848,25.262
	c1.751,18.139,8.431,37.378,18.368,52.639c10.143,15.577,21.56,34.368,38.978,42.277c61.915,28.116,151.074-0.085,188.316-56.052
	c9.775-14.69,14.212-31.601,20.295-47.948c7.896-21.22,17.896-41.567,25.641-62.828c12.891-35.38,31.528-72.591,35.568-110.239
	c2.379-22.165,6.226-58.678-5.95-78.686c-6.234-10.243-13.67-11.198-26.043-14.688c-19.884-5.609-38.029-8.337-58.486-8.252
	c-22.025,0.091-42.225,2.319-64.04,4.297c-14.024,1.271-28.478-0.201-42.454,2.089c-18.334,3.003-36.99,10.748-54.46,16.95
	c-13.887,4.93-34.065,5.886-46.3,13.183c-7.942,4.737-10.946,9.526-19.63,12.48"/>
<g>
	<g>
		<path d="M240.586,5.895c244.247-49.006,423.109,171.731,357.187,392.904c-24.226,81.287-124.236,178.555-214.312,196.453
			C150.256,641.597-43.221,452.322,8.416,220.207C27.717,133.441,110.935,31.909,240.586,5.895z M338.812,220.207
			c6.275,7.97,51.328-7.214,53.578,26.789c-5.447,16.73-35.806,123.879-71.437,116.085
			c-58.744-12.851-12.898-165.237-71.438-214.313c-77.657-4.898-130.598,58.103-133.945,98.227c21.037,0.2,26.292-15.38,53.579-8.93
			c42.409,70.699,36.673,189.545,98.226,241.102c40.505,4.369,80.27-20.653,107.156-44.65
			c67.265-60.031,134.504-168.284,116.085-276.819C432.059,114.35,344.29,155.522,338.812,220.207z"/>
	</g>
</g>
</svg>
